<svg id="Layer_1" data-name="Layer 1" xmlns="http://www.w3.org/2000/svg" viewBox="0 0 64 64">
    <defs>
        <style>
            .cls-1{
                fill:#43b3d7;
            }
            .cls-2{
                fill:#322f51;
            }
        </style>
    </defs>
    <title>SmallRye Icon</title>
    <path class="cls-1" d="M38.67,11.62l-7.28,3.26a.62.62,0,0,0,0,1.12l5.44,2.41,1.07.48a.62.62,0,0,0,.5,0l2.91-1.31L42.54,17a.62.62,0,0,0,.36-.56v-5.8a.61.61,0,0,0-.86-.56l-1.48.66Z" />
    <path class="cls-1" d="M37.74,53.31v.2a.61.61,0,0,0,.86.56l.42-.19,3.19-1.42,10-4.46a.62.62,0,0,0,.36-.56V31.16a.62.62,0,0,0-.87-.56l-2.18,1-2,.92-.58.26-2,.92-2.6,1.16-2,.92-4.5,2-2.51,1.13L30.69,40a.61.61,0,0,0,0,1.12l1.23.55,2.51,1.11,2.94,1.31a.61.61,0,0,1,.37.56v8.67Z" />
    <path class="cls-1" d="M40.66,20.11l-2.51,1.13-4.1,1.83-3.73,1.67-2.3,1a.61.61,0,0,0,0,1.12l8,3.55,2.52,1.11,2.76,1.23a.62.62,0,0,0,.5,0l3-1.36,2-.91.21-.1a.61.61,0,0,0,.37-.56V18a.62.62,0,0,0-.87-.56L45,18.19l-2.05.92Z" />
    <path class="cls-2" d="M34.83,62.82a.61.61,0,0,0,.86-.56V46a.62.62,0,0,0-.36-.56L31.92,43.9l-2.51-1.12-1.47-.65-2.05-.91-3-1.36-1.45-.64L20.8,39l-1.92-.86-.57-.25-2-.91-2.6-1.16-2.05-.9-1.56-.7a.62.62,0,0,0-.87.56V51a.62.62,0,0,0,.37.56l16.33,7.26,3.54,1.57Z" />
    <path class="cls-2" d="M16.27,23.91l-1.74-.78a.61.61,0,0,0-.86.56v9.46a.62.62,0,0,0,.36.56l2.24,1,2,.91,2.49,1.11.59.26,1.46.65,1,.47,2.77,1.22a.58.58,0,0,0,.5,0l3.47-1.55,2.51-1.13,4.62-2.06a.61.61,0,0,0,0-1.12L36,32.68l-2.52-1.12-9.23-4.1-2.51-1.12-3.44-1.53Z" />
    <path class="cls-2" d="M20.75,13.5l-1.58-.69a.61.61,0,0,0-.86.56v8.81a.61.61,0,0,0,.37.56L24,25.11a.62.62,0,0,0,.5,0l4-1.82,2.09-.93L33,21.3l1.64-.74a.48.48,0,0,0,0-.88l-7-3.12-2.52-1.12-2.47-1.1Z" />
    <path class="cls-2" d="M24.39,12.88l3,1.33a.62.62,0,0,0,.5,0l9-4a.61.61,0,0,0,.26-.9L31.84,1.4a.62.62,0,0,0-1,0L24.12,12A.61.61,0,0,0,24.39,12.88Z" />

</svg>
